<svg xmlns="http://www.w3.org/2000/svg" width="300" height="100" viewBox="0 0 300 100">
  <g fill="none" fill-rule="evenodd">
    <rect width="300" height="100" fill="#4A4A4A"/>
    <path fill="#FFFFFF" d="M115.414062,58.171875 L128.052734,58.171875 L128.052734,60 L113.234375,60 L113.234375,34.40625 L115.414062,34.40625 L115.414062,58.171875 Z M130.548828,50.2089844 C130.548828,48.3808502 130.903317,46.7343823 131.612305,45.2695312 C132.321293,43.8046802 133.323236,42.6650431 134.618164,41.8505859 C135.913092,41.0361287 137.380851,40.6289062 139.021484,40.6289062 C141.552747,40.6289062 143.603508,41.5165927 145.173828,43.2919922 C146.744148,45.0673917 147.529297,47.4199072 147.529297,50.3496094 L147.529297,50.7890625 C147.529297,52.6289154 147.174808,54.2841723 146.46582,55.7548828 C145.756832,57.2255933 144.757819,58.359371 143.46875,59.15625 C142.179681,59.953129 140.708993,60.3515625 139.056641,60.3515625 C136.537097,60.3515625 134.489266,59.4638761 132.913086,57.6884766 C131.336906,55.9130771 130.548828,53.5605615 130.548828,50.6308594 L130.548828,50.2089844 Z M132.658203,50.7890625 C132.658203,53.0625114 133.247064,54.9287036 134.424805,56.3876953 C135.602545,57.846687 137.146475,58.5761719 139.056641,58.5761719 C140.955088,58.5761719 142.493158,57.846687 143.670898,56.3876953 C144.848639,54.9287036 145.4375,53.0039182 145.4375,50.6132812 L145.4375,50.2089844 C145.4375,48.7558521 145.167971,47.4257873 144.628906,46.21875 C144.089841,45.0117127 143.333989,44.0771517 142.361328,43.4150391 C141.388667,42.7529264 140.275397,42.421875 139.021484,42.421875 C137.146475,42.421875 135.617193,43.1572192 134.433594,44.6279297 C133.249994,46.0986402 132.658203,48.0234256 132.658203,50.4023438 L132.658203,50.7890625 Z M151.027344,50.3144531 C151.027344,47.3378757 151.686517,44.9795009 153.004883,43.2392578 C154.323249,41.4990147 156.11327,40.6289062 158.375,40.6289062 C160.964857,40.6289062 162.933587,41.6601459 164.28125,43.7226562 L164.386719,40.9804688 L166.355469,40.9804688 L166.355469,59.6132812 C166.355469,62.0625122 165.669929,64.001946 164.298828,65.4316406 C162.927728,66.8613353 161.070324,67.5761719 158.726562,67.5761719 C157.402337,67.5761719 156.139654,67.2802764 154.938477,66.6884766 C153.737299,66.0966767 152.791019,65.3085987 152.099609,64.3242188 L153.277344,63.0585938 C154.765632,64.8867279 156.535146,65.8007812 158.585938,65.8007812 C160.343759,65.8007812 161.714839,65.2822317 162.699219,64.2451172 C163.683599,63.2080026 164.193359,61.7695404 164.228516,59.9296875 L164.228516,57.5390625 C162.880853,59.4140719 160.917982,60.3515625 158.339844,60.3515625 C156.136708,60.3515625 154.367194,59.472665 153.03125,57.7148438 C151.695306,55.9570225 151.027344,53.5839993 151.027344,50.5957031 L151.027344,50.3144531 Z M153.154297,50.6835938 C153.154297,53.1093871 153.64062,55.0224539 154.613281,56.4228516 C155.585942,57.8232492 156.957022,58.5234375 158.726562,58.5234375 C161.316419,58.5234375 163.150385,57.3632929 164.228516,55.0429688 L164.228516,46.2011719 C163.736326,44.9824158 163.027348,44.0537141 162.101562,43.4150391 C161.175777,42.776364 160.062507,42.4570312 158.761719,42.4570312 C156.992179,42.4570312 155.615239,43.1513602 154.630859,44.5400391 C153.646479,45.9287179 153.154297,47.976549 153.154297,50.6835938 Z M170.679688,50.2089844 C170.679688,48.3808502 171.034176,46.7343823 171.743164,45.2695312 C172.452152,43.8046802 173.454095,42.6650431 174.749023,41.8505859 C176.043952,41.0361287 177.511711,40.6289062 179.152344,40.6289062 C181.683606,40.6289062 183.734367,41.5165927 185.304688,43.2919922 C186.875008,45.0673917 187.660156,47.4199072 187.660156,50.3496094 L187.660156,50.7890625 C187.660156,52.6289154 187.305668,54.2841723 186.59668,55.7548828 C185.887692,57.2255933 184.888678,58.359371 183.599609,59.15625 C182.31054,59.953129 180.839852,60.3515625 179.1875,60.3515625 C176.667956,60.3515625 174.620125,59.4638761 173.043945,57.6884766 C171.467766,55.9130771 170.679688,53.5605615 170.679688,50.6308594 L170.679688,50.2089844 Z M172.789062,50.7890625 C172.789062,53.0625114 173.377924,54.9287036 174.555664,56.3876953 C175.733404,57.846687 177.277334,58.5761719 179.1875,58.5761719 C181.085947,58.5761719 182.624018,57.846687 183.801758,56.3876953 C184.979498,54.9287036 185.568359,53.0039182 185.568359,50.6132812 L185.568359,50.2089844 C185.568359,48.7558521 185.298831,47.4257873 184.759766,46.21875 C184.2207,45.0117127 183.464849,44.0771517 182.492188,43.4150391 C181.519526,42.7529264 180.406256,42.421875 179.152344,42.421875 C177.277334,42.421875 175.748053,43.1572192 174.564453,44.6279297 C173.380853,46.0986402 172.789062,48.0234256 172.789062,50.4023438 L172.789062,50.7890625 Z"/>
  </g>
</svg>
